<?xml version="1.0" encoding="utf-8"?>
<!-- Generator: Adobe Illustrator 26.3.1, SVG Export Plug-In . SVG Version: 6.00 Build 0)  -->
<svg version="1.1" id="Layer_1" xmlns="http://www.w3.org/2000/svg" xmlns:xlink="http://www.w3.org/1999/xlink" x="0px" y="0px"
	 viewBox="0 0 1000 1000" style="enable-background:new 0 0 1000 1000;" xml:space="preserve">
<style type="text/css">
	.st0{fill:#007B7D;}
</style>
<path d="M777.42,479.68c-2.64-35.86-12.09-70.46-28.07-102.83c-15.99-32.37-37.72-60.9-64.59-84.8
	c-27.83-24.75-59.97-43.4-95.52-55.45c-35.55-12.04-72.4-16.76-109.55-14.03c-35.86,2.64-70.46,12.09-102.83,28.08
	c-32.37,15.99-60.9,37.72-84.8,64.59c-24.75,27.83-43.4,59.97-55.45,95.51c-12.04,35.55-16.76,72.4-14.03,109.55
	c2.64,35.86,12.09,70.46,28.08,102.83s37.72,60.9,64.59,84.8c27.83,24.75,59.97,43.4,95.52,55.45c29.02,9.83,58.9,14.78,89.11,14.78
	c6.8,0,13.62-0.25,20.44-0.75c35.86-2.64,70.46-12.09,102.83-28.07c32.37-15.99,60.9-37.72,84.8-64.59
	c24.75-27.83,43.4-59.97,55.45-95.52C775.43,553.69,780.15,516.83,777.42,479.68z M401.77,301.1
	c31.02-15.32,64.43-23.05,98.03-23.05c23.96,0,48.02,3.93,71.38,11.84c56.12,19.01,101.48,58.74,127.72,111.87
	c18.05,36.55,25.57,76.42,22.31,116.03c-13.19-12.28-27-23.68-41.37-34.12c11.9-50.24-16.25-102.38-66.12-119.27
	c-44.95-15.23-93.3,3.02-117.84,41.28c-70.9-13.33-139.62-10.69-195.12-3.28C322.16,358.49,357.26,323.09,401.77,301.1z
	 M623.91,474.85c-7.98,23.54-33.63,36.21-57.17,28.24c-11.41-3.86-20.62-11.94-25.96-22.74c-5.33-10.8-6.14-23.03-2.28-34.43
	c6.36-18.77,23.94-30.62,42.74-30.62c4.79,0,9.65,0.77,14.43,2.39C619.22,425.66,631.89,451.3,623.91,474.85z M598.23,698.9
	c-53.13,26.24-113.29,30.22-169.41,11.21c-56.12-19.01-101.48-58.74-127.72-111.87c-21.08-42.68-27.78-89.91-19.74-135.93
	c53.14-9.29,124.61-15.3,198.45-2.37c-0.08,15.54,3.45,31,10.53,45.33c11.99,24.27,32.71,42.42,58.35,51.11
	c10.74,3.64,21.67,5.37,32.44,5.37c26.52,0,51.97-10.51,70.77-28.76c19.26,14.51,37.36,31.02,54.09,49.34
	C685.69,633.29,647.79,674.42,598.23,698.9z"/>
</svg>
